<mxfile modified="2020-02-08T03:05:44.756Z" host="www.draw.io" agent="Mozilla/5.0 (Macintosh; Intel Mac OS X 10_12_6) AppleWebKit/537.36 (KHTML, like Gecko) Chrome/80.0.3987.87 Safari/537.36" etag="MSZH5-EOSnVcMzCfHhlc" version="12.6.6" type="github">
  <diagram id="JTEC7zDQZaKKNVADHG2T" name="Page-1">
    <mxGraphModel dx="1172" dy="463" grid="0" gridSize="10" guides="1" tooltips="1" connect="1" arrows="1" fold="1" page="1" pageScale="1" pageWidth="827" pageHeight="1169" math="0" shadow="0">
      <root>
        <mxCell id="0"/>
        <mxCell id="1" parent="0"/>
        <mxCell id="Z2ialbOHY0rj64omciPw-12" value="" style="group" parent="1" vertex="1" connectable="0">
          <mxGeometry x="110" y="100" width="290" height="220" as="geometry"/>
        </mxCell>
        <mxCell id="Z2ialbOHY0rj64omciPw-1" value="&lt;font style=&quot;font-size: 14px&quot;&gt;VM1&lt;br&gt;（Ubuntu）&lt;/font&gt;" style="rounded=0;whiteSpace=wrap;html=1;" parent="Z2ialbOHY0rj64omciPw-12" vertex="1">
          <mxGeometry width="70" height="80" as="geometry"/>
        </mxCell>
        <mxCell id="Z2ialbOHY0rj64omciPw-4" value="&lt;font style=&quot;font-size: 14px&quot;&gt;Hypervisor(ESXi,Xen)&lt;/font&gt;" style="rounded=0;whiteSpace=wrap;html=1;" parent="Z2ialbOHY0rj64omciPw-12" vertex="1">
          <mxGeometry y="100" width="290" height="50" as="geometry"/>
        </mxCell>
        <mxCell id="Z2ialbOHY0rj64omciPw-6" value="&lt;font style=&quot;font-size: 14px&quot;&gt;Hardware&lt;/font&gt;" style="rounded=0;whiteSpace=wrap;html=1;" parent="Z2ialbOHY0rj64omciPw-12" vertex="1">
          <mxGeometry y="170" width="290" height="50" as="geometry"/>
        </mxCell>
        <mxCell id="Z2ialbOHY0rj64omciPw-7" value="&lt;font style=&quot;font-size: 14px&quot;&gt;VM2&lt;br&gt;（Windows）&lt;/font&gt;" style="rounded=0;whiteSpace=wrap;html=1;" parent="Z2ialbOHY0rj64omciPw-12" vertex="1">
          <mxGeometry x="110" width="70" height="80" as="geometry"/>
        </mxCell>
        <mxCell id="Z2ialbOHY0rj64omciPw-8" value="&lt;font style=&quot;font-size: 14px&quot;&gt;VM3&lt;br&gt;（Android）&lt;/font&gt;" style="rounded=0;whiteSpace=wrap;html=1;" parent="Z2ialbOHY0rj64omciPw-12" vertex="1">
          <mxGeometry x="220" width="70" height="80" as="geometry"/>
        </mxCell>
        <mxCell id="Z2ialbOHY0rj64omciPw-9" value="&lt;font style=&quot;font-size: 18px&quot;&gt;...&lt;/font&gt;" style="text;html=1;strokeColor=none;fillColor=none;align=center;verticalAlign=middle;whiteSpace=wrap;rounded=0;" parent="Z2ialbOHY0rj64omciPw-12" vertex="1">
          <mxGeometry x="70" y="30" width="40" height="20" as="geometry"/>
        </mxCell>
        <mxCell id="Z2ialbOHY0rj64omciPw-11" value="&lt;font style=&quot;font-size: 18px&quot;&gt;...&lt;/font&gt;" style="text;html=1;strokeColor=none;fillColor=none;align=center;verticalAlign=middle;whiteSpace=wrap;rounded=0;" parent="Z2ialbOHY0rj64omciPw-12" vertex="1">
          <mxGeometry x="180" y="30" width="40" height="20" as="geometry"/>
        </mxCell>
        <mxCell id="Z2ialbOHY0rj64omciPw-13" value="" style="group" parent="1" vertex="1" connectable="0">
          <mxGeometry x="460" y="100" width="300" height="220" as="geometry"/>
        </mxCell>
        <mxCell id="Z2ialbOHY0rj64omciPw-14" value="&lt;font style=&quot;font-size: 14px&quot;&gt;VM1&lt;br&gt;（Ubuntu）&lt;/font&gt;" style="rounded=0;whiteSpace=wrap;html=1;" parent="Z2ialbOHY0rj64omciPw-13" vertex="1">
          <mxGeometry width="70" height="80" as="geometry"/>
        </mxCell>
        <mxCell id="Z2ialbOHY0rj64omciPw-15" value="&lt;font style=&quot;font-size: 14px&quot;&gt;Hypervisor(Virtual Box,VMWare Workstation)&lt;/font&gt;" style="rounded=0;whiteSpace=wrap;html=1;" parent="Z2ialbOHY0rj64omciPw-13" vertex="1">
          <mxGeometry y="100" width="290" height="40" as="geometry"/>
        </mxCell>
        <mxCell id="Z2ialbOHY0rj64omciPw-19" value="&lt;font style=&quot;font-size: 18px&quot;&gt;...&lt;/font&gt;" style="text;html=1;strokeColor=none;fillColor=none;align=center;verticalAlign=middle;whiteSpace=wrap;rounded=0;" parent="Z2ialbOHY0rj64omciPw-13" vertex="1">
          <mxGeometry x="70" y="30" width="40" height="20" as="geometry"/>
        </mxCell>
        <mxCell id="Z2ialbOHY0rj64omciPw-20" value="&lt;font style=&quot;font-size: 18px&quot;&gt;...&lt;/font&gt;" style="text;html=1;strokeColor=none;fillColor=none;align=center;verticalAlign=middle;whiteSpace=wrap;rounded=0;" parent="Z2ialbOHY0rj64omciPw-13" vertex="1">
          <mxGeometry x="180" y="30" width="40" height="20" as="geometry"/>
        </mxCell>
        <mxCell id="Z2ialbOHY0rj64omciPw-21" value="&lt;font style=&quot;font-size: 14px&quot;&gt;Host Operating System(Ubuntu,Redhat)&lt;/font&gt;" style="rounded=0;whiteSpace=wrap;html=1;" parent="Z2ialbOHY0rj64omciPw-13" vertex="1">
          <mxGeometry y="156" width="290" height="40" as="geometry"/>
        </mxCell>
        <mxCell id="Z2ialbOHY0rj64omciPw-22" value="&lt;font style=&quot;font-size: 14px&quot;&gt;VM2&lt;br&gt;（Windows）&lt;/font&gt;" style="rounded=0;whiteSpace=wrap;html=1;" parent="Z2ialbOHY0rj64omciPw-13" vertex="1">
          <mxGeometry x="110" width="70" height="80" as="geometry"/>
        </mxCell>
        <mxCell id="Z2ialbOHY0rj64omciPw-23" value="&lt;font style=&quot;font-size: 14px&quot;&gt;VM3&lt;br&gt;（Android）&lt;/font&gt;" style="rounded=0;whiteSpace=wrap;html=1;" parent="Z2ialbOHY0rj64omciPw-13" vertex="1">
          <mxGeometry x="220" width="70" height="80" as="geometry"/>
        </mxCell>
        <mxCell id="Z2ialbOHY0rj64omciPw-16" value="&lt;font style=&quot;font-size: 14px&quot;&gt;Hardware&lt;/font&gt;" style="rounded=0;whiteSpace=wrap;html=1;" parent="1" vertex="1">
          <mxGeometry x="460" y="310" width="290" height="40" as="geometry"/>
        </mxCell>
      </root>
    </mxGraphModel>
  </diagram>
</mxfile>
